# xmcd
#
# Track frame offsets:
#	150
#	20853
#	38251
#	55965
#	75466
#	94499
#	111015
#	128439
#	145533
#	169703
#	188214
#	206906
#	221176
#	238648
#	264499
#	290035
#	310227
#
# Disc length: 4395 seconds
#
# Revision: 1
# Processed by: cddbd v1.5.2PL0 Copyright (c) Steve Scherf et al.
# Submitted via: audiograbber 1.83.01
#
DISCID=f5112911
DTITLE=Tarkan - The Best Of
DYEAR=2005
DGENRE=neue türkische Musik
TTITLE0=Dudu
TTITLE1=Kuzu Kuzu
TTITLE2=Simarik
TTITLE3=Ay
TTITLE4=Sen Baskasin
TTITLE5=Hüp
TTITLE6=Hepsi Seninmi
TTITLE7=Gülümse Kaderine
TTITLE8=Kir Zincirlerini
TTITLE9=Ölürüm Sana
TTITLE10=Gül Döktüm Yollarina
TTITLE11=Yandim
TTITLE12=Kis Günesi
TTITLE13=Kuzu Kuzu (RMX)
TTITLE14=Simarik (RMX)
TTITLE15=Hüp (RMX)
TTITLE16=Bir Oluruz Yolunda
EXTD=
EXTT0=
EXTT1=
EXTT2=
EXTT3=
EXTT4=
EXTT5=
EXTT6=
EXTT7=
EXTT8=
EXTT9=
EXTT10=
EXTT11=
EXTT12=
EXTT13=
EXTT14=
EXTT15=
EXTT16=
PLAYORDER=
